<svg xmlns="http://www.w3.org/2000/svg" width="500.004" height="119.639" viewBox="0 0 1935 463">
  <defs>
    <style>
      .cls-1 {
        fill: #2196f3;
      }

      .cls-1, .cls-2 {
        fill-rule: evenodd;
      }

      .cls-2 {
        fill: #fffffb;
      }
    </style>
  </defs>
  <path id="Forma_1" data-name="Forma 1" class="cls-1" d="M25,289c3.98,1.667,14,2,14,2l15-1,7,6,3,10,7,10,6,9,9,1,10-5,7-9,7-15,18-17,22-10,13-5,11,3,15,9,16,12,5,10v10l-2,9,3,11,2,13-1,13,3,13,7,7,12,11,18,12,21,1h12l17,3,14-3,13-1h6l-5-20-1-38-1-51,6-32,11-24,15-14,18-7,23-3,19,1,15,3,15,6,15,12,9,13,5,20,71,1,11-19V232l6-8,15-13,9-13,4-21,2-14-1-15-12-11-20-9-10-3-12-4-16,5-17,12-11,8-8,3-27-9-31-14-12-9-5-20,10-14,20-14,6-5-8-11-9,2-17,3-11-3-4-7s4.02-11.667,8-15,20-13,20-13l14-9,2-5-8-6L424,5,396,18l-10,1H370l-19,6-15,5H322L293,45l-17,9-23,8-20,8L215,85l-28,20-19,14-21,15s-11.48,17.833-14,19-13,9-13,9l-20,9L83,182s-8.98,8.833-12,10-21,16-21,16-21.48,10.833-24,12-15,10-15,10L0,242l1,18,9,16S21.02,287.333,25,289Z"/>
  <path id="Mallorquina" class="cls-2" d="M850,268a70.658,70.658,0,0,1,17,12c6.574,6.574,10,18,10,18l25.1,120.667h25.718l21.9-123.535,3.033,123.535h29.423l-3.032-186.2H936.576L914.339,341.4,893.675,232.466H849.652Zm190.57,123.377q-2.925-3.816-2.92-10.332,0-7.749,5.78-15.891a39.56,39.56,0,0,1,14.77-12.634v36.387a16.533,16.533,0,0,1-4.66,4.436,10.245,10.245,0,0,1-5.56,1.853A8.966,8.966,0,0,1,1040.57,391.377Zm10.22,23.584A33.164,33.164,0,0,0,1060,399.8q0.225,2.7,3.14,18.867h33.36a306.1,306.1,0,0,1-2.36-33.354v-61.88q0-18.194-10.28-29.087t-29.93-10.893q-22.005,0-33.86,10.332T1006.54,325.9c0,0.151-.04.861-0.11,2.133s-0.11,2.022-.11,2.247l35.04,1.347,0.89-9.77q0.45-10.555,8.09-10.557,4.485,0,6.18,3.032t1.68,8.648v13.139c-1.57.674-4.29,1.741-8.14,3.2s-6.91,2.639-9.15,3.538-5.23,2.265-8.93,4.1a65.694,65.694,0,0,0-8.93,5.166,72.586,72.586,0,0,0-7.52,6.345,33.79,33.79,0,0,0-6.46,8.086,46.583,46.583,0,0,0-3.93,9.827,43.815,43.815,0,0,0-1.63,12.185,33.582,33.582,0,0,0,8.37,22.4q8.355,9.829,22.51,10.052Q1044.275,421.026,1050.79,414.961Zm104.89,3.706v-186.2h-37.51v186.2h37.51Zm63.01,0v-186.2h-37.51v186.2h37.51Zm114.21-41.328v-50.2q0-21.225-12.41-32.456t-34.2-11.23q-21.78,0-34.03,11.174t-12.24,32.512v50.2q0,21.227,12.24,32.456t34.03,11.231q21.8,0,34.2-11.231t12.41-32.456h0Zm-53.85,14.431q-2.085-4.1-2.08-11.848V324.556q0-7.86,2.08-11.96c1.38-2.733,3.8-4.1,7.24-4.1,3.6,0,6.08,1.331,7.47,3.987s2.08,6.682,2.08,12.073v55.366q0,7.975-2.08,11.961c-1.39,2.658-3.87,3.986-7.47,3.986C1282.85,395.869,1280.43,394.5,1279.05,391.77Zm112.58,26.9V333.428q10.335-15.271,25.72-16.059a25.517,25.517,0,0,1,6.18.786V284.912a20.9,20.9,0,0,0-5.28-.9q-14.37,0-26.62,23.809V285.7h-37.51V418.667h37.51Zm81.31-25.942a21.462,21.462,0,0,1-2.36-10.669V321.411q0-6.4,2.48-10.388a8.135,8.135,0,0,1,7.41-3.987q4.035,0,9.88,3.145v82.993q-5.955,3.707-10.11,3.706A7.837,7.837,0,0,1,1472.94,392.725Zm54.92,69.741V285.7h-37.51v8.872q-12.585-11.118-26.5-11.118-15.06,0-22.97,11.567t-7.92,30.547v54.018q0,20.552,7.92,31t22.97,10.445q13.47-.114,26.5-13.14v54.58h37.51Zm77.83-56.04v12.241h37.51V285.7h-37.51V391.377q-6.18,3.933-10.67,4.043-4.155.114-5.9-2.414t-1.74-7.469V285.7h-37.51V390.03q0,13.589,6.29,22.236t18.08,8.647q16.065,0,31.45-14.487h0Zm98.83-143.076V236.958h-37.74V263.35h37.74Zm0,155.317V285.7h-37.51V418.667h37.51Zm60.86,0V314.786q6.975-4.6,11.68-4.605c2.85-.074,4.79.693,5.84,2.3s1.58,4.1,1.58,7.469v98.715h37.51V314.336q0-13.587-6.29-22.236t-18.08-8.647q-16.41,0-32.24,15.5V285.7h-37.51V418.667h37.51Zm112.76-27.29q-2.925-3.816-2.92-10.332,0-7.749,5.78-15.891a39.56,39.56,0,0,1,14.77-12.634v36.387a16.533,16.533,0,0,1-4.66,4.436,10.245,10.245,0,0,1-5.56,1.853A8.94,8.94,0,0,1,1878.14,391.377Zm10.22,23.584a33.164,33.164,0,0,0,9.21-15.161q0.225,2.7,3.14,18.867h33.36a303.582,303.582,0,0,1-2.36-33.354v-61.88q0-18.194-10.28-29.087t-29.93-10.893q-22.005,0-33.86,10.332T1844.11,325.9c0,0.151-.04.861-0.11,2.133s-0.11,2.022-.11,2.247l35.03,1.347,0.9-9.77q0.45-10.555,8.09-10.557,4.485,0,6.18,3.032t1.68,8.648v13.139c-1.57.674-4.29,1.741-8.14,3.2s-6.91,2.639-9.15,3.538-5.23,2.265-8.93,4.1a65.079,65.079,0,0,0-8.93,5.166,73.651,73.651,0,0,0-7.53,6.345,33.734,33.734,0,0,0-6.45,8.086,46.583,46.583,0,0,0-3.93,9.827,43.815,43.815,0,0,0-1.63,12.185,33.622,33.622,0,0,0,8.36,22.4q8.37,9.829,22.52,10.052Q1881.845,421.026,1888.36,414.961Z"/>
  <path id="Cuina" class="cls-2" d="M428.338,419a44.155,44.155,0,0,0,15.33-7.581,37.731,37.731,0,0,0,9.771-11.96,54.932,54.932,0,0,0,5.334-15.217,95.111,95.111,0,0,0,1.572-18.081V350.1H420.14v19.541q0,4.269-.112,6.851a38.38,38.38,0,0,1-.842,6.064,14.619,14.619,0,0,1-2.078,5.391,11.171,11.171,0,0,1-3.987,3.313,13.334,13.334,0,0,1-6.345,1.4q-8.2,0-11.118-5.9t-2.92-17.126V282.829q0-4.154.168-6.962a35.3,35.3,0,0,1,1.011-6.233,15.781,15.781,0,0,1,2.246-5.391,11.358,11.358,0,0,1,4.1-3.369,15.813,15.813,0,0,1,13.028,0,11.126,11.126,0,0,1,3.986,3.2,13.63,13.63,0,0,1,1.966,5.334,44.219,44.219,0,0,1,.786,5.784q0.111,2.247.112,6.626v18.755h40.205v-16.4a81.683,81.683,0,0,0-2.639-21.9,46.247,46.247,0,0,0-8.647-16.846q-6.009-7.411-16.621-11.23t-25.662-3.819q-15.724,0-26.672,4.212a38.4,38.4,0,0,0-17.295,12.578,53.461,53.461,0,0,0-9.153,19.541,108.927,108.927,0,0,0-2.808,26.335v66.372a105.213,105.213,0,0,0,2.808,25.83,54.081,54.081,0,0,0,9.153,19.429,38.933,38.933,0,0,0,17.351,12.747q11,4.321,26.616,4.323A76.382,76.382,0,0,0,428.338,419Zm107.027-12.073v12.241h37.51V286.2h-37.51V391.877q-6.178,3.933-10.669,4.043-4.157.114-5.9-2.414t-1.741-7.469V286.2h-37.51V390.53q0,13.589,6.289,22.236t18.081,8.647q16.059,0,31.446-14.487h0ZM634.193,263.85V237.458H596.459V263.85h37.734Zm0,155.317V286.2h-37.51V419.167h37.51Zm60.869,0V315.286q6.962-4.6,11.68-4.605,4.266-.111,5.84,2.3t1.572,7.469v98.715h37.51V314.836q0-13.587-6.289-22.236t-18.081-8.647q-16.4,0-32.232,15.5V286.2h-37.51V419.167h37.51Zm112.754-27.29q-2.922-3.816-2.92-10.332,0-7.749,5.784-15.891a39.507,39.507,0,0,1,14.768-12.634v36.387a16.537,16.537,0,0,1-4.661,4.436,10.247,10.247,0,0,1-5.559,1.853A8.957,8.957,0,0,1,807.816,391.877Zm10.22,23.584a33.128,33.128,0,0,0,9.209-15.161q0.223,2.7,3.144,18.867h33.355a305.3,305.3,0,0,1-2.359-33.354v-61.88q0-18.194-10.276-29.087T821.18,283.953q-22.012,0-33.86,10.332T773.788,326.4c0,0.151-.039.861-0.113,2.133s-0.112,2.022-.112,2.247l35.039,1.347,0.9-9.77q0.447-10.555,8.085-10.557,4.491,0,6.177,3.032t1.685,8.648v13.139q-2.358,1.011-8.142,3.2t-9.153,3.538q-3.369,1.347-8.928,4.1a65.737,65.737,0,0,0-8.929,5.166,73.976,73.976,0,0,0-7.524,6.345,33.822,33.822,0,0,0-6.457,8.086,47.014,47.014,0,0,0-3.931,9.827,43.965,43.965,0,0,0-1.629,12.185,33.589,33.589,0,0,0,8.367,22.4q8.365,9.829,22.517,10.052Q811.521,421.526,818.036,415.461Z"/>
</svg>
