<svg xmlns="http://www.w3.org/2000/svg" width="1002" height="830" viewBox="0 0 1002 830">
  <defs>
    <style>
      .cls-1 {
        fill: none;
        stroke: #000;
        stroke-width: 6.99px;
        fill-rule: evenodd;
      }
    </style>
  </defs>
  <path id="Forma_1" data-name="Forma 1" class="cls-1" d="M9,467l12-10,31-12,23-30,23-12,17-23,18-12,23-24,23-1,25-12,14-19,11-20,20-23,16-5,13-12,8-24,13-11,14-15,35-24,20-8,14-20s28-7,34-9,31-17,31-17l41-30,27-13,10-16,25,7,15-11,28-17,15-2,17,3-4,9,38-13,27-17L712,1l8,3,37-4-6,18s-24,8-25,12-20,16-20,16l-11,7-20,7-4,9-9,2H646l-5,9,1,23,12,18,13,9,14-9,24-10,25-18,18-14-7,33,4,6-10,29-17,2H692l-8,14-1,30,20,23,23,18,30,13,23,10,20,9,21-5,27-14,25-17,5-23,16-10,14,8,35,17,18,8,28,8,5,17,9,18v17l-2,38-5,17-6,3-13,24-17-1-15,22,3,30,3,10-10,10-9,11-3,18-37,17-1,11-26,23-1,21s-3,14-4,19,2,31,2,31l-2,23-3,22-22,20-7,33-6,18-29,12-21,17-24,8-29,23-23,33-19,27-21-4-23-37-26-22-4-20-26-27-25-1-19,4-13,3-16-7-30,4-15,6-17-2-21-5-19-7-7-13-20-14-6-17,8-30-10-19-15-26,15-17,11-21-24-22-16-6-22-12-29-19-23-1-4,17-18,2-11,11-20,15-20,3-11,11s4,7,3,12-5,27-5,27l-7,28-14,6-20-12-15-19-9-22,4-16-14-20L79,553l-23-5-18,5L25,543,10,520,0,493l6-22Z"/>
</svg>
